# xmcd
#
# Track frame offsets:
#	182
#	28625
#	47937
#	64275
#	91000
#	111425
#	142700
#	170512
#	193262
#
# Disc length: 2945 seconds
#
# Revision: 1
# Processed by: cddbd v1.4PL0 Copyright (c) Steve Scherf et al.
# Submitted via: EasyCDDAExtractor 5.0.6
#
DISCID=7b0b7f09
DTITLE=Orquesta Guayaba - A Ver Si Me Entiendes!
DYEAR=1993
DGENRE=Latin
TTITLE0=Sabor Isleño
TTITLE1=Despues De Tanto Tiempo
TTITLE2=A Ver Si Me Entiendes
TTITLE3=El Duende
TTITLE4=Que Buena Esta La Noche
TTITLE5=Te Odio y Te Quiero
TTITLE6=Simple Mirada
TTITLE7=Oye Mujer
TTITLE8=Vivir La Noche
EXTD=
EXTT0=
EXTT1=
EXTT2=
EXTT3=
EXTT4=
EXTT5=
EXTT6=
EXTT7=
EXTT8=
PLAYORDER=
